<svg t="1652627333552" class="icon" viewBox="0 0 1024 1024" version="1.1" xmlns="http://www.w3.org/2000/svg" p-id="14284" width="25" height="25"><path d="M862.68 244.1l147.06-94.84a32 32 0 0 0 8.88-44.38l-17.74-26.62a32 32 0 0 0-44.38-8.88l-220.12 142C636.86 193.82 542.44 192 512 192 439.1 192 0 201.1 0 416.3v320.46c0 60.54 55 115.36 144 155.72v-203.8a48 48 0 1 1 96 0v237.86c66.1 18.22 142.14 30.12 224 33.46V752.78a48 48 0 1 1 96 0V960c81.86-3.34 157.9-15.24 224-33.46V688.68a48 48 0 1 1 96 0v203.8c89-40.36 144-95.18 144-155.72V416.3c0-86.64-71.52-139.52-161.32-172.2zM512 544.48c-229.76 0-416-57.38-416-128.18s186.24-128.16 416-128.16c34.3 0 67.46 1.42 99.36 3.82l-145.62 94a32 32 0 0 0-8.86 44.38l17.74 26.62a32 32 0 0 0 44.38 8.88l237.28-153.04C860.18 336 928 373.68 928 416.3c0 70.8-186.26 128.18-416 128.18z" p-id="14285" fill="#bfbfbf"></path></svg>
