<svg t="1652577656997" class="icon" viewBox="0 0 1024 1024" version="1.1" xmlns="http://www.w3.org/2000/svg" p-id="2446" width="25" height="25"><path d="M1005.2 109.2L914.8 18.8c-25-25-65.6-25-90.6 0l-135.8 135.8c-25 25-25 65.6 0 90.6L580 353.4c-90.8-58-200.8-57.8-267 8.4-19.4 19.4-32.8 42.4-41 67.8-12.2 37.6-47 66.2-85.4 69.8-48 4.6-92.6 23.2-126.8 57.6C-32.6 649.2-16 815.2 96.4 927.6c112.4 112.4 278.4 128.8 370.6 36.6 34.4-34.2 53-78.8 57.6-127 3.6-38.2 32.2-73.2 69.8-85.4 25.4-8.2 48.4-21.6 67.8-41 66.2-66.2 66.2-176.2 8.4-267l108.4-108.4c25 25 65.6 25 90.6 0l135.8-135.8c24.8-24.8 24.8-65.4-0.2-90.4zM416 704c-53 0-96-43-96-96s43-96 96-96 96 43 96 96-43 96-96 96z" p-id="2447" fill="#bfbfbf"></path></svg>
