<svg t="1652626491930" class="icon" viewBox="0 0 1024 1024" version="1.1" xmlns="http://www.w3.org/2000/svg" p-id="13042" width="25" height="25"><path d="M512 64C264.576 64 64 264.576 64 512s200.576 448 448 448 448-200.576 448-448S759.424 64 512 64zM206.544 506.648c-16.544-11.148-18.498-30.29-7.494-44.414C220.148 435.146 246.5 416 288.274 416s68.348 19.186 89.31 46.348c10.928 14.152 7.53 34.022-7.574 44.288-5.83 3.95-12.682 5.366-19.844 5.366-10.824 0-21.078-4.238-27.432-12.446-6.796-8.832-15.242-19.554-34.46-19.554-19.122 0-27.636 10.774-34.538 19.642-6.326 8.138-16.548 12.356-27.338 12.358C219.236 512 212.372 510.574 206.544 506.648zM788.49 621.89C741.214 713.438 632.688 768 512.008 768c-123.738 0-235.1-56.47-277.112-147.354-7.326-15.878-0.382-34.766 15.468-42.114 4.274-1.956 8.726-2.926 13.316-2.926 12.326 0 23.636 7.22 28.814 18.398C324.328 662.876 412.54 704 512.008 704c97.204 0 183.6-40.538 220.106-111.23 5.492-10.602 16.296-17.176 28.208-17.176 5.064 0 10.12 1.242 14.616 3.592C790.402 587.196 796.508 606.368 788.49 621.89zM818.012 506.634c-5.83 3.95-12.682 5.366-19.844 5.366-10.824 0-21.078-4.238-27.434-12.446-6.796-8.832-15.24-19.554-34.46-19.554-19.122 0-27.634 10.774-34.536 19.642-6.326 8.138-16.55 12.356-27.34 12.358-7.162 0-14.028-1.426-19.856-5.352-16.542-11.148-18.496-30.29-7.492-44.414C668.148 435.146 694.5 416 736.274 416c41.776 0 68.35 19.186 89.312 46.348C836.514 476.5 833.116 496.37 818.012 506.634z" p-id="13043" fill="#efb336"></path></svg>
