<svg t="1652627503160" class="icon" viewBox="0 0 1025 1024" version="1.1" xmlns="http://www.w3.org/2000/svg" p-id="15949" width="16" height="16"><path d="M992.234825 474.253563a495.858964 495.858964 0 0 0-991.717929 44.214091 481.396411 481.396411 0 0 0 59.503076 244.21054 80.163866 80.163866 0 0 1 4.95859 64.048449L13.739802 981.269354a20.247574 20.247574 0 0 0 26.859027 25.61938l138.014079-53.718055a82.643161 82.643161 0 0 1 72.312765 4.132158A495.858964 495.858964 0 0 0 992.234825 474.253563z m-449.578794 219.004376a41.32158 41.32158 0 0 1-82.643161 0v-206.607902a41.32158 41.32158 0 1 1 82.643161 0z m-41.321581-289.251063a41.32158 41.32158 0 1 1 41.321581-41.32158 41.32158 41.32158 0 0 1-41.321581 41.32158z" fill="#ffffff" p-id="15950"></path></svg>
