<svg t="1652627411822" class="icon" viewBox="0 0 1024 1024" version="1.1" xmlns="http://www.w3.org/2000/svg" p-id="15005" width="25" height="25"><path d="M170.666667 128h682.666666a85.333333 85.333333 0 0 1 85.333334 85.333333v597.333334a85.333333 85.333333 0 0 1-85.333334 85.333333H170.666667a85.333333 85.333333 0 0 1-85.333334-85.333333V213.333333a85.333333 85.333333 0 0 1 85.333334-85.333333m0 85.333333v597.333334h170.666666v-256H288V213.333333H170.666667m213.333333 597.333334h256v-256h-53.333333V213.333333h-149.333334v341.333334H384v256m298.666667 0h170.666666V213.333333h-117.333333v341.333334H682.666667v256z" fill="#bfbfbf" p-id="15006"></path></svg>
