<svg t="1652625995317" class="icon" viewBox="0 0 1024 1024" version="1.1" xmlns="http://www.w3.org/2000/svg" p-id="11909" width="25" height="25"><path d="M512 64C264.576 64 64 264.576 64 512s200.576 448 448 448 448-200.576 448-448S759.424 64 512 64zM290.124 583.392c-3.102 9.904-11.24 17.448-21.386 21.212-6.716 2.492-13.632 3.548-20.472 1.876-17.732-4.37-27.832-21.814-22.51-38.886 10.202-32.758 28.44-59.99 67.604-74.526s70.53-5.754 99.736 12.3c15.23 9.414 20.058 28.038 8.428 44.246-4.098 5.708-10.038 9.434-16.752 11.926-10.118 3.752-21.168 3.356-29.93-2.072-9.556-5.914-21.286-13.052-39.214-6.398C297.61 559.756 293.424 572.748 290.124 583.392zM690.312 762.908c-5.578 3.892-11.964 5.762-18.288 5.762-10.106 0-20.046-4.776-26.268-13.69C645.406 754.478 608 704 512 704c-95.96 0-133.408 50.478-133.758 50.98-6.222 8.914-16.166 13.69-26.27 13.69-6.322 0-12.708-1.87-18.286-5.762-14.492-10.116-18.042-30.062-7.926-44.556C327.972 715.18 381.478 640 512 640c130 0 184.026 75.18 186.238 78.352C708.354 732.846 704.804 752.792 690.312 762.908zM776.058 606.48c-6.84 1.674-13.758 0.618-20.472-1.876-10.146-3.766-18.286-11.308-21.386-21.212-3.298-10.644-7.484-23.636-25.504-30.322-17.928-6.654-29.658 0.484-39.214 6.398-8.762 5.428-19.812 5.824-29.93 2.072-6.714-2.492-12.654-6.216-16.752-11.926-11.63-16.208-6.802-34.832 8.428-44.246 29.208-18.054 60.572-26.836 99.736-12.3s57.404 41.768 67.604 74.526C803.888 584.666 793.79 602.112 776.058 606.48z" p-id="11910" fill="#1195db"></path></svg>
