<svg width="69" height="53" viewBox="0 0 69 53" fill="none" xmlns="http://www.w3.org/2000/svg">
<path d="M63.9798 0.00173905C62.9406 0.0327036 61.9543 0.46702 61.2298 1.21268L20.058 42.3846L6.88608 29.2127C6.5175 28.8288 6.07602 28.5223 5.58751 28.3112C5.09899 28.1 4.57326 27.9885 4.0411 27.9831C3.50894 27.9776 2.98104 28.0785 2.48833 28.2796C1.99562 28.4808 1.54801 28.7782 1.17169 29.1545C0.795376 29.5309 0.49793 29.9785 0.296773 30.4712C0.0956165 30.9639 -0.00520722 31.4918 0.000207046 32.0239C0.00562132 32.5561 0.117164 33.0818 0.328303 33.5704C0.539443 34.0589 0.845935 34.5003 1.22983 34.8689L17.2298 50.8689C17.98 51.6188 18.9973 52.04 20.058 52.04C21.1186 52.04 22.1359 51.6188 22.8861 50.8689L66.8861 6.86893C67.4641 6.30708 67.8589 5.58371 68.0187 4.79363C68.1786 4.00355 68.096 3.18362 67.7818 2.44128C67.4677 1.69893 66.9366 1.06881 66.2581 0.633499C65.5797 0.198183 64.7856 -0.0220224 63.9798 0.00173905Z" fill="white"/>
</svg>
