<svg width="267" height="475" viewBox="0 0 267 475" fill="none" xmlns="http://www.w3.org/2000/svg">
<path d="M137.362 424.831C127.723 424.831 122.143 431.103 122.143 440.793C122.143 445.452 123.667 449.189 125.533 451.877L128.267 475H137.452V455.727C140.937 457.475 144.204 462.569 147.098 467.081C149.8 471.294 152.176 475 154.102 475H196.261C197.146 475 197.945 474.398 198.033 473.466C198.77 465.682 187.717 456.755 172.365 456.755C168.235 456.755 162.151 449.257 155.879 441.529C149.209 433.311 142.329 424.831 137.362 424.831Z" fill="#F23116"/>
<path d="M48.2156 440.793C48.2156 431.103 55.8551 424.831 61.4353 424.831C64.3111 424.831 74.238 433.311 78.0992 441.529C81.7296 449.257 85.2522 456.755 87.6438 456.755C96.5321 456.755 99.9837 465.682 99.5581 473.466C99.5072 474.398 99.0446 475 98.5321 475H67.6963C66.5816 475 65.2057 471.294 63.6413 467.081C61.9661 462.569 59.7043 458.455 59.7043 458.455L58.0567 475H52.2116L51.1559 451.877C50.0762 449.189 48.2156 445.452 48.2156 440.793Z" fill="#F23116"/>
<path d="M76.6876 417.394L105.546 340.531C105.952 339.451 106.23 338.321 106.37 337.166L118.645 236.966L144.12 184.663H71.6914C71.6914 184.663 53.7091 212.949 55.7071 243.904C57.6068 273.337 67.1838 314.544 68.121 326.599C68.1965 327.571 67.5613 328.377 66.7387 328.798C49.0703 337.845 58.7043 417.649 58.7041 428.567C59.2036 458.989 69.6949 456.32 76.6876 456.32C90.1743 456.32 69.4872 436.573 76.6876 417.394Z" fill="#DD9E86"/>
<path d="M182.076 320.741C182.018 313.66 181.57 284.924 178.088 266.32C174.092 244.972 158.108 184.663 158.108 184.663H113.651C113.651 203.589 115.549 247.592 123.142 272.191L137.762 319.557C138.188 320.937 137.201 322.353 135.869 322.652C114.411 327.466 127.332 390.558 133.047 432.807C133.79 438.297 136.392 443.322 140.435 446.802L148.718 453.931C150.916 455.823 153.652 456.854 156.473 456.854H163.154C165.414 456.854 166.587 453.974 165.047 452.206C159.152 445.441 156.812 435.974 158.812 426.98L181.732 323.941C181.966 322.89 182.084 321.822 182.076 320.741Z" fill="#DD9E86"/>
<path d="M0.573487 348.797C13.0634 315.379 49.5233 219.124 67.0838 186.677C67.7848 185.381 69.0521 184.663 70.4525 184.663H158.734C160.449 184.663 161.973 185.832 162.521 187.568L213.494 349.115C215.24 354.65 211.387 360.383 205.922 360.383H8.00108C2.36582 360.383 -1.51636 354.389 0.573487 348.797Z" fill="#FECE00"/>
<path d="M229.107 136.473L177.854 161.594C174.623 163.023 170.911 162.055 168.681 159.201L145.845 129.982H143.256C130.571 129.982 118.6 123.702 110.844 112.975L83.1812 74.7212H133.132C137.898 74.6262 142.878 77.2734 146.055 82.2412C156.335 98.3133 170.815 120.629 181.924 136.473C183.48 138.69 186.579 138.703 188.449 136.759C190.319 134.816 198.289 123.045 214.631 118.642C219.365 117.367 223.474 114.061 225.561 109.338L227.564 104.806C228.002 103.816 228.668 102.961 229.499 102.32L238.94 95.0512C239.956 94.2699 241.172 93.844 242.42 93.8344L248.992 93.781C250.563 93.7682 251.523 95.6063 250.694 97.0366L250.011 98.215C249.17 99.6646 247.827 100.702 246.277 101.099L244.112 101.653C243.781 101.738 243.464 101.873 243.169 102.056L242.591 102.414C241.238 103.251 240.77 105.097 241.546 106.537C242.184 107.723 243.494 108.294 244.733 107.926L252.647 105.575C253.602 105.292 254.477 104.76 255.196 104.029L263.595 95.4867C264.357 94.7118 265.543 94.6862 266.325 95.427C266.92 95.9895 267.146 96.8755 266.905 97.6878L265.157 103.564C264.942 104.288 264.853 105.047 264.893 105.803C264.977 107.368 264.503 108.913 263.567 110.126L263.162 110.652C262.6 111.381 262.265 112.279 262.206 113.221L262.159 113.966C262.093 115 261.55 115.933 260.709 116.454L260.536 116.562C259.854 116.984 259.394 117.724 259.298 118.56C259.201 119.396 258.743 120.137 258.059 120.559L254.834 122.557C254.245 122.921 253.586 123.136 252.907 123.181C252.12 123.234 251.357 123.516 250.704 123.992C243.935 128.928 236.674 133.127 229.107 136.473Z" fill="#DD9E86"/>
<path d="M165.872 86.4308C161.002 79.0848 153.1 74.7191 144.676 74.7191H126.638L148.866 159.821C149.667 162.888 153.215 163.972 155.413 161.822L189.475 128.499C190.96 127.045 191.201 124.638 190.036 122.882L165.872 86.4308Z" fill="#FFB3DA"/>
<path d="M247.209 97.7742C245.907 98.0518 244.712 97.5255 244.539 96.599C244.366 95.6714 245.281 94.6947 246.582 94.4172C247.883 94.1397 249.079 94.667 249.252 95.5935C249.425 96.5211 248.511 97.4967 247.209 97.7742Z" fill="#FAC798"/>
<path fill-rule="evenodd" clip-rule="evenodd" d="M134.631 105.319V74.7191L146.086 80.8397C149.607 82.7205 152.223 86.0988 153.292 90.1465L168.77 148.754L155.413 161.822C153.215 163.972 149.667 162.888 148.866 159.821L134.631 105.319Z" fill="#F778B9"/>
<path d="M71.193 180.393V74.7191H87.1773L118.621 113.552C121.043 116.543 125.639 114.713 125.639 110.758V74.7191H134.39C141.357 74.7191 147.262 80.1982 148.238 87.5676L160.459 179.794C160.8 182.365 158.933 184.663 156.503 184.663H75.1891C72.9821 184.663 71.193 182.751 71.193 180.393Z" fill="#FFB3DA"/>
<path d="M71.193 141.966C75.1671 141.966 78.9793 138.537 81.7896 132.431C84.5998 126.325 86.1783 118.044 86.1783 109.41C86.1783 100.776 84.5998 92.4948 81.7896 86.3892C78.9793 80.2835 75.1671 76.8539 71.193 76.8539V141.966Z" fill="#F778B9"/>
<path d="M32.4502 158.691L57.7656 84.7571C59.83 78.7283 65.1986 74.7191 71.207 74.7191C81.7996 74.7191 88.7507 86.5909 84.1772 96.7997C76.0812 114.871 64.8627 140.359 57.5866 158.728C56.7923 160.734 57.568 163.019 59.2339 164.273C81.1302 180.754 94.7568 230.909 96.6679 238.567C98.5161 245.973 105.068 263.885 106.038 266.526C106.121 266.751 106.163 266.978 106.172 267.219L106.619 280.148C106.644 280.847 106.345 281.515 105.822 281.934L105.239 282.401C104.053 283.352 102.345 282.64 102.076 281.083L100.23 270.435C100.186 270.184 100.102 269.944 99.9787 269.725L95.594 261.916C95.3073 261.407 94.573 261.704 94.6739 262.289L96.599 273.396C96.645 273.658 96.644 273.927 96.597 274.188L94.3912 286.441C94.2553 287.2 93.7458 287.82 93.0605 288.063L92.513 288.259C91.1614 288.74 89.7867 287.599 89.8876 286.081L90.6479 274.718C90.6648 274.458 90.6379 274.199 90.5679 273.95L88.1453 265.355C87.9855 264.788 87.2092 264.88 87.1693 265.471L86.7117 272.217C86.6898 272.551 86.5938 272.874 86.433 273.161L79.9264 284.748C79.4838 285.536 78.6187 285.933 77.7795 285.733L77.1022 285.573C75.8604 285.278 75.1891 283.834 75.7195 282.599L80.0203 272.572C80.1282 272.32 80.1901 272.049 80.2001 271.772L80.3999 266.645C80.4259 265.984 79.5268 265.873 79.4109 266.523L78.8784 269.508C78.7576 270.186 78.336 270.761 77.7485 271.049L68.8848 275.39C67.7479 275.946 66.4172 275.263 66.1139 273.966L66.0159 273.548C65.8231 272.724 66.1059 271.856 66.7361 271.338L71.4924 267.429C71.938 267.063 72.2186 266.512 72.2653 265.915L72.6299 261.239C72.6694 260.732 72.5257 260.228 72.2282 259.83C68.9343 255.432 68.6837 249.261 71.6085 244.573L71.6925 244.438L32.8824 165.599C31.8317 163.465 31.6746 160.956 32.4502 158.691Z" fill="#DD9E86"/>
<path d="M106.159 279.663C106.159 280.842 105.487 281.798 104.66 281.798C103.833 281.798 103.162 280.842 103.162 279.663C103.162 278.483 103.833 277.528 104.66 277.528C105.487 277.528 106.159 278.483 106.159 279.663Z" fill="#FAC798"/>
<path d="M94.1704 285C94.1704 286.18 93.4991 287.135 92.6719 287.135C91.8447 287.135 91.1733 286.18 91.1733 285C91.1733 283.82 91.8447 282.865 92.6719 282.865C93.4991 282.865 94.1704 283.82 94.1704 285Z" fill="#FAC798"/>
<path d="M79.8735 283.714C79.3679 284.795 78.4269 285.292 77.7715 284.824C77.1162 284.355 76.9933 283.099 77.4978 282.017C78.0033 280.935 78.9444 280.438 79.5997 280.906C80.2551 281.375 80.378 282.631 79.8735 283.714Z" fill="#FAC798"/>
<path d="M69.4784 274.176C68.3861 274.549 67.3738 274.2 67.2174 273.398C67.0608 272.597 67.8194 271.645 68.9115 271.273C70.0038 270.901 71.0161 271.25 71.1725 272.051C71.329 272.853 70.5705 273.805 69.4784 274.176Z" fill="#FAC798"/>
<path d="M71.193 167.584V99.2697H87.1773L93.9007 147.961C95.3572 158.29 87.8716 167.584 78.0942 167.584H71.193Z" fill="#F778B9"/>
<path d="M36.7138 95.5743C39.6611 83.3011 50.0143 74.7191 61.8732 74.7191H87.6768V151.573C87.6768 153.931 85.8875 155.843 83.6807 155.843H27.3919C24.782 155.843 22.8726 153.213 23.5212 150.512L36.7138 95.5743Z" fill="#FFB3DA"/>
<path d="M135.13 45.8989C136.234 45.8989 137.128 44.9431 137.128 43.764C137.128 42.585 136.234 41.6292 135.13 41.6292C134.027 41.6292 133.132 42.585 133.132 43.764C133.132 44.9431 134.027 45.8989 135.13 45.8989Z" fill="#F4B510"/>
<path d="M137.128 57.2847C137.128 58.6602 136.234 59.7753 135.13 59.7753C134.026 59.7753 133.132 58.6602 133.132 57.2847C133.132 55.9091 134.026 46.9663 135.13 46.9663C136.234 46.9663 137.128 55.9091 137.128 57.2847Z" fill="#F4B510"/>
<path fill-rule="evenodd" clip-rule="evenodd" d="M106.658 0C94.2443 0 84.1802 10.7527 84.1802 24.0169V25.0843C84.1802 25.8568 84.2142 26.6208 84.2811 27.3746C84.4869 29.6971 82.367 32.0225 80.1842 32.0225H79.1851C69.8055 32.0225 62.2018 40.1468 62.2018 50.1685C62.2018 60.1903 69.8055 68.3146 79.1851 68.3146H80.1842C89.5639 68.3146 97.1675 60.1903 97.1675 50.1685C97.1675 48.7318 98.604 47.5597 99.8858 47.992C102.024 48.7126 104.298 49.1011 106.658 49.1011H112.652C125.066 49.1011 135.13 38.3484 135.13 25.0843V24.0169C135.13 10.7527 125.066 0 112.652 0H106.658Z" fill="#7B371F"/>
<path fill-rule="evenodd" clip-rule="evenodd" d="M97.7369 23.4831H106.159C110.393 23.4831 114.213 20.7626 115.841 16.586L116.481 14.9438L116.755 15.8195C118.183 20.3962 122.191 23.4831 126.706 23.4831H132.785C133.387 25.0079 133.804 26.6813 134.001 28.5032C134.176 30.1196 134.363 31.7465 134.939 33.2529C135.556 34.8659 136.129 36.3646 136.129 38.427C136.129 43.772 134.878 48.7502 132.665 52.9244C131.978 54.2188 131.34 55.5676 130.7 56.9209C129.532 59.3909 128.356 61.8763 126.865 64.0759C124.687 67.291 121.146 69.382 117.148 69.382C116.677 69.382 116.213 69.3532 115.755 69.2966L118.441 79.9761C119.804 85.4007 115.979 90.7303 110.722 90.7303H108.157C99.3283 90.7303 92.1724 83.0844 92.1724 73.6517V49.2163C92.0904 49.0072 92.0115 48.7966 91.9346 48.5847C91.1574 46.4395 89.3302 44.8315 87.1773 44.8315C84.9704 44.8315 83.1812 42.9198 83.1812 40.5618V37.4261C83.1812 33.0476 88.6139 31.5062 90.6469 35.3077C91.2603 36.4538 92.6649 36.5882 93.2123 35.4045C93.8257 34.0762 94.4022 32.3976 95.0375 30.5501C95.7988 28.3335 96.644 25.8735 97.7369 23.4831Z" fill="#DD9E86"/>
<path d="M88.1763 45.8989C89.2798 45.8989 90.1743 44.9431 90.1743 43.764C90.1743 42.585 89.2798 41.6292 88.1763 41.6292C87.0728 41.6292 86.1783 42.585 86.1783 43.764C86.1783 44.9431 87.0728 45.8989 88.1763 45.8989Z" fill="#F4B510"/>
<path d="M90.1743 57.2847C90.1743 58.6602 89.2802 59.7753 88.1763 59.7753C87.0724 59.7753 86.1783 58.6602 86.1783 57.2847C86.1783 55.9091 87.0724 46.9663 88.1763 46.9663C89.2802 46.9663 90.1743 55.9091 90.1743 57.2847Z" fill="#F4B510"/>
<path d="M118.909 52.3716L120.881 53.4474C121.044 53.536 121.242 53.5012 121.381 53.3748C121.698 53.0856 122.199 52.6924 122.604 52.4337C122.736 52.3497 122.902 52.3602 123.022 52.4627C124.785 53.9731 124.27 56.6041 122.821 58.0305C123.655 59.6932 122.821 61.9101 119.654 61.9101C116.487 61.9101 111.82 58.0305 111.154 55.9982C112.716 53.9777 116.701 52.7323 118.647 52.3308C118.736 52.3124 118.827 52.3273 118.909 52.3716Z" fill="#C61800"/>
<path d="M112.153 34.1573C109.946 31.3108 106.367 31.3108 104.161 34.1573C107.357 38 110.821 35.7584 112.153 34.1573Z" fill="white"/>
<path d="M132.133 34.1573C129.926 31.3108 126.348 31.3108 124.141 34.1573C127.338 38 130.801 35.7584 132.133 34.1573Z" fill="white"/>
<path d="M108.157 36.2921C109.26 36.2921 110.155 35.3363 110.155 34.1573C110.155 32.9783 109.26 32.0225 108.157 32.0225C107.053 32.0225 106.159 32.9783 106.159 34.1573C106.159 35.3363 107.053 36.2921 108.157 36.2921Z" fill="#1A2027"/>
<path d="M128.137 36.2921C129.241 36.2921 130.135 35.3363 130.135 34.1573C130.135 32.9783 129.241 32.0225 128.137 32.0225C127.034 32.0225 126.139 32.9783 126.139 34.1573C126.139 35.3363 127.034 36.2921 128.137 36.2921Z" fill="#1A2027"/>
</svg>
